<?xml version="1.0" encoding="UTF-8" standalone="no"?>
<!-- Created with Inkscape (http://www.inkscape.org/) -->

<svg
   xmlns:dc="http://purl.org/dc/elements/1.1/"
   xmlns:cc="http://creativecommons.org/ns#"
   xmlns:rdf="http://www.w3.org/1999/02/22-rdf-syntax-ns#"
   xmlns:svg="http://www.w3.org/2000/svg"
   xmlns="http://www.w3.org/2000/svg"
   xmlns:sodipodi="http://sodipodi.sourceforge.net/DTD/sodipodi-0.dtd"
   xmlns:inkscape="http://www.inkscape.org/namespaces/inkscape"
   width="210mm"
   height="297mm"
   viewBox="0 0 744.09448819 1052.3622047"
   id="svg2"
   version="1.1"
   inkscape:version="0.91 r13725"
   sodipodi:docname="box.svg">
  <defs
     id="defs4" />
  <sodipodi:namedview
     id="base"
     pagecolor="#ffffff"
     bordercolor="#666666"
     borderopacity="1.0"
     inkscape:pageopacity="0.0"
     inkscape:pageshadow="2"
     inkscape:zoom="0.49497475"
     inkscape:cx="661.53579"
     inkscape:cy="678.00498"
     inkscape:document-units="px"
     inkscape:current-layer="layer1"
     showgrid="false"
     inkscape:window-width="1920"
     inkscape:window-height="1017"
     inkscape:window-x="1912"
     inkscape:window-y="-8"
     inkscape:window-maximized="1" />
  <metadata
     id="metadata7">
    <rdf:RDF>
      <cc:Work
         rdf:about="">
        <dc:format>image/svg+xml</dc:format>
        <dc:type
           rdf:resource="http://purl.org/dc/dcmitype/StillImage" />
        <dc:title></dc:title>
      </cc:Work>
    </rdf:RDF>
  </metadata>
  <g
     inkscape:label="Layer 1"
     inkscape:groupmode="layer"
     id="layer1">
    <path
       style="fill:#0000ff;fill-rule:evenodd;stroke:#000000;stroke-width:3.59401774px;stroke-linecap:butt;stroke-linejoin:miter;stroke-opacity:1"
       d="m 1.2964502,-0.62654239 0,1053.11994239 740.5096298,0 0,-1053.11994239 -740.5096298,0 z M 175.69143,211.61706 c 1.07218,0.0902 2.12859,0.33438 3.15562,0.8156 1.93665,0.90746 2.32621,5.52108 4.32792,6.08385 4.83943,1.3606 31.63198,0 38.97481,0 l 56.29825,0 c 1.82164,0 24.69111,-0.90541 25.97929,0 1.82589,1.28335 2.39717,5.18471 4.3338,6.09217 2.3948,1.12215 21.61833,0 25.97929,0 1.44348,0 3.3131,-1.43481 4.3338,0 1.02067,1.43479 0,4.0547 0,6.08383 1.44348,0 3.30722,-1.43483 4.32791,0 2.04139,2.86961 -2.0414,9.30634 0,12.17599 1.02068,1.43483 3.31314,-1.43482 4.33384,0 1.0207,1.43483 -1.0207,4.65735 0,6.09218 2.04138,2.86964 6.61442,-2.86961 8.65578,0 2.16524,3.04372 -2.1652,15.21613 0,18.25985 1.02071,1.43478 3.31317,-1.43483 4.33383,0 1.34093,1.88493 -1.3409,28.55087 0,30.4358 1.02071,1.43483 3.30725,-1.43479 4.32791,0 0.13946,0.19602 0,16.78349 0,18.25987 l 0,48.70401 c 0,2.02912 1.02071,4.64898 0,6.08381 -1.02066,1.43483 -3.3072,-1.43483 -4.32791,0 -1.02066,1.43483 1.02071,4.65735 0,6.09218 -2.04137,2.86965 -6.62032,-2.86963 -8.66172,0 -1.0207,1.43481 1.02071,4.64903 0,6.08382 -2.16522,3.04371 -10.82444,-3.04368 -12.98964,0 -1.0207,1.43482 1.02067,4.64907 0,6.08385 -2.0414,2.86966 -6.62032,-2.8696 -8.66172,0 -1.02068,1.43483 1.0207,4.65735 0,6.09218 -1.04205,1.46478 -16.28141,-1.46483 -17.32344,0 -1.02071,1.43478 1.02067,4.64899 0,6.08381 -0.17431,0.24502 -15.73316,0 -17.32348,0 l -25.97925,0 c -1.44348,0 -3.31313,1.43479 -4.33383,0 -1.02071,-1.43482 1.0207,-4.64903 0,-6.08381 -1.02071,-1.43483 -3.30719,1.43478 -4.32789,0 -1.02071,-1.43483 1.0207,-4.65735 0,-6.09218 -2.04138,-2.8696 -6.62036,2.86966 -8.66173,0 -1.0207,-1.43478 1.02067,-4.64903 0,-6.08385 -2.0414,-2.86962 -6.62032,2.86965 -8.66173,0 -1.02066,-1.43479 1.02071,-4.64901 0,-6.08382 -1.02066,-1.43483 -3.3072,1.43481 -4.32791,0 -1.02067,-1.43483 1.02071,-4.65735 0,-6.09218 -1.02067,-1.43483 -3.31313,1.43483 -4.33384,0 -1.02069,-1.43483 1.02071,-4.649 0,-6.08381 -1.02069,-1.43484 -3.03679,0.90744 -4.32789,0 -1.82587,-1.28336 -2.50201,-4.80884 -4.32789,-6.09218 -1.29109,-0.90746 -3.31315,1.43478 -4.33383,0 -1.0207,-1.43483 1.02068,-4.64903 0,-6.08383 -1.0207,-1.43482 -3.30725,1.4348 -4.32791,0 -2.04141,-2.86964 2.04137,-9.30638 0,-12.17603 -1.02071,-1.43477 -3.04271,0.90747 -4.3338,0 -18.02225,-12.66714 4.63193,0.41896 -4.32793,-12.17598 -1.02067,-1.43484 -3.31313,1.43481 -4.33383,0 -1.02071,-1.43484 1.0207,-4.64901 0,-6.08383 -1.02071,-1.43483 -3.30719,1.43482 -4.32789,0 -1.02071,-1.43483 1.0207,-4.65739 0,-6.09216 -1.02071,-1.43484 -3.30718,1.43477 -4.32789,0 -1.0207,-1.43484 1.02071,-4.64905 0,-6.08383 -1.0207,-1.43483 -3.31316,1.43478 -4.33382,0 -1.02071,-1.43483 1.02066,-4.65735 0,-6.09218 -1.02071,-1.43478 -3.30726,1.43483 -4.32794,0 -2.04139,-2.8696 2.04138,-9.29803 0,-12.16768 -2.04139,-2.86961 -6.62031,2.86965 -8.66172,0 -1.02066,-1.43482 1.02071,-4.65734 0,-6.09218 -1.02066,-1.43481 -3.31311,1.43484 -4.33382,0 -1.0207,-1.43481 0,-4.05467 0,-6.08381 -1.44348,0 -3.30718,1.43483 -4.32789,0 -1.0207,-1.43483 1.02071,-4.6574 0,-6.09218 -2.04139,-2.86965 -6.62035,2.86962 -8.66173,0 -1.02069,-1.43482 1.02067,-4.64903 0,-6.08381 -1.02069,-1.43483 -3.30724,1.43478 -4.32792,0 -1.02071,-1.43483 1.02068,-4.65735 0,-6.09217 -1.02071,-1.43479 -3.3131,1.43482 -4.3338,0 -1.02066,-1.43479 1.0207,-4.64905 0,-6.08387 -2.04137,-2.8696 -6.62034,2.86966 -8.66175,0 -1.0207,-1.43478 1.0207,-4.64899 0,-6.08381 -2.04137,-2.86961 -6.61441,2.86964 -8.65579,0 -1.02069,-1.43483 1.02071,-4.65735 0,-6.09218 -1.02069,-1.43482 -3.31315,1.43483 -4.33382,0 -1.02071,-1.43482 1.02067,-4.64899 0,-6.08382 -2.04141,-2.86965 -7.37062,3.62981 -8.66172,0 -2.66164,-7.48311 -2.88444,-16.2355 -4.32793,-24.35202 l 47.63657,0 c 3.2478,0 6.6174,-1.08631 9.83398,-0.8156 z m 299.70288,14.91415 c 0.16924,-0.0238 0.34672,0.0801 0.52098,0.19141 l 4.48187,0 c 0.18036,-0.25354 0.50856,0 0.76373,0 l -0.76373,0 c -0.18037,0.25367 0.18036,0.82006 0,1.07361 -0.0279,0.0393 -0.0451,0.0424 -0.071,0.0749 0.61045,-0.0321 1.23465,-0.0749 1.59853,-0.0749 l 7.65524,0 22.96573,0 6.89148,0 c 1.27587,0 2.56615,-0.29487 3.82466,0 0.79596,0.18663 1.49519,0.95667 2.29719,1.08195 1.52165,0.23777 3.06328,0 4.59431,0 l 6.12181,0 1.53342,0 c 0.51033,0 1.04927,-0.22669 1.53343,0 0.34235,0.16022 0.40776,0.99021 0.76373,1.07361 1.25851,0.29487 2.54879,0 3.82466,0 0.25523,0 0.52212,-0.0869 0.76968,0 1.56567,0.55019 3.01178,1.70234 4.59432,2.14725 0.50043,0.14062 1.01719,0 1.5275,0 0.51035,0.35879 0.97988,0.88739 1.53341,1.08191 0.49511,0.17386 1.04338,-0.22669 1.52749,0 0.34236,0.16023 0.42734,0.91322 0.76967,1.07365 0.48416,0.22669 1.04335,-0.22669 1.52752,0 0.34234,0.16065 0.46939,0.79221 0.76964,1.07361 0.47476,0.44491 1.01716,0.72325 1.52751,1.08195 l 4.59434,3.22918 c 0.51034,0.35878 1.05863,0.62868 1.5334,1.0736 0.60052,0.56277 0.92696,1.58443 1.52749,2.14725 0.47474,0.44491 1.12995,0.51479 1.53341,1.08192 0.40349,0.5672 0.36027,1.58008 0.76376,2.14725 0.40346,0.56715 1.05864,0.63704 1.53341,1.08196 0.6005,0.56277 1.01718,1.42984 1.52749,2.14721 l 2.29717,3.22921 1.53342,2.15556 c 0.25523,0.35879 0.60235,0.61987 0.76374,1.0736 0.11398,0.32087 -0.18037,0.81999 0,1.07362 0.40346,0.56715 1.12995,0.51478 1.53341,1.08195 0.18037,0.25354 -0.11397,0.75278 0,1.07361 0.16127,0.45372 0.60239,0.61986 0.76377,1.0736 0.11398,0.32086 -0.11398,0.76113 0,1.08196 0.16127,0.45373 0.56355,0.65153 0.76374,1.0736 0.31649,0.66738 0.45318,1.47987 0.76969,2.14726 0.93382,1.96901 0.97241,0.10818 1.52747,3.22916 0.12368,0.69598 0,1.43815 0,2.15557 0,0.35878 -0.11398,0.75277 0,1.0736 0.16126,0.45377 0.6496,0.60069 0.76377,1.08196 0.16127,0.68054 -0.1613,1.46665 0,2.14726 0.11394,0.48124 0.56945,0.65152 0.76964,1.0736 0.3165,0.66738 0.50857,1.43814 0.76375,2.15556 0.25524,0.71736 0.62539,1.37742 0.76376,2.15556 0,4.89878 -0.35676,0.0621 0.76965,3.22917 0.11398,0.32086 0,0.71489 0,1.07365 0,0.7174 -0.16126,1.46661 0,2.14721 0.22826,0.96252 1.29925,1.19305 1.5275,2.15556 0.16128,0.68059 0,1.43819 0,2.15556 0,0.35879 -0.11397,0.75278 0,1.07361 0.16128,0.45373 0.67622,0.58152 0.76375,1.07365 0.14003,0.78763 -0.0907,6.33114 0,6.45833 0.18037,0.25354 0.58925,-0.25354 0.76968,0 0.26858,0.37754 -0.26433,4.64141 0,5.38473 0.16126,0.45373 0.6496,0.59239 0.76373,1.07365 0.34842,1.46929 -0.34841,4.98899 0,6.45833 0.11429,0.48126 0.60238,0.61992 0.76377,1.07362 0.11641,0.32725 0,3.5597 0,4.30281 l 0,10.76115 c 0,3.46396 -0.17624,-1.83368 0.76964,2.15557 0.13157,0.55441 0,6.39364 0,7.53198 l 0,16.13757 c 0,0.50742 0.0345,5.33598 0,5.38474 -1.58388,2.2265 0.0595,-3.40491 -1.53341,1.07359 -0.22826,0.64169 0.36088,1.64826 0,2.15556 -0.18036,0.25354 -0.58328,-0.25354 -0.76373,0 -0.18036,0.25354 0.11398,0.75273 0,1.07364 -0.16127,0.45374 -0.6083,0.61988 -0.76968,1.07362 -0.52797,1.48434 0.92885,0.96588 -0.76375,2.15556 -0.22825,0.16022 -0.58331,-0.25355 -0.76373,0 -0.18037,0.25354 0.11397,0.75278 0,1.0736 -0.16127,0.45373 -0.60239,0.62823 -0.76377,1.08196 -0.11429,0.32088 0.18037,0.81993 0,1.0736 -0.18036,0.25355 -0.58919,-0.25353 -0.76965,0 -0.18037,0.25355 0.18036,0.81999 0,1.0736 -0.18037,0.25356 -0.58332,-0.25353 -0.76376,0 -0.18037,0.25356 0.18035,0.82003 0,1.07366 -0.18037,0.25354 -0.58332,-0.25355 -0.76375,0 -0.18036,0.25354 0.11397,0.76109 0,1.08191 -0.16126,0.45374 -0.5145,0.71495 -0.76964,1.07365 l -0.76377,1.0736 -2.29716,3.22917 c -0.25524,0.3588 -0.46348,0.80055 -0.76374,1.08196 -0.47475,0.44492 -1.05865,0.6287 -1.53341,1.0736 -0.69687,0.65308 -1.61869,2.75226 -2.29719,3.22917 -0.22826,0.16066 -0.53551,-0.16022 -0.76374,0 -0.32277,0.22671 -0.44096,0.84679 -0.76373,1.07365 -0.22827,0.16023 -0.58327,-0.25353 -0.76377,0 -0.18037,0.25354 0.18038,0.81994 0,1.0736 -0.36088,0.5073 -1.07694,-0.32086 -1.5334,0 -0.32277,0.22671 -0.44099,0.8551 -0.76376,1.08196 -0.22827,0.16024 -0.58923,-0.25353 -0.76965,0 -0.18036,0.25355 0.18036,0.81999 0,1.0736 -0.36089,0.50731 -1.16664,-0.50724 -1.52752,0 -0.18035,0.25356 0.18037,0.81999 0,1.07361 -0.18035,0.25355 -0.51452,0 -0.76968,0 l -5.35804,0 c -2.0414,0 0.257,-0.35295 -0.76377,1.08196 -0.18035,0.25355 -0.50856,0 -0.76374,0 l -0.76968,0 -10.71612,0 -5.35808,0 c -0.2607,0 -2.64661,0.19432 -3.06093,0 -0.5413,-0.25354 -0.97391,-0.92462 -1.53342,-1.08196 -0.76716,-0.21561 -3.59159,0 -4.5884,0 -0.51036,0 -1.04926,0.22671 -1.53342,0 -0.34235,-0.16022 -0.41365,-0.95052 -0.76374,-1.07361 -0.74267,-0.2612 -1.53166,0 -2.29716,0 -0.25523,0 -0.54145,0.16024 -0.76968,0 -0.32277,-0.22669 -0.41363,-0.95057 -0.76373,-1.0736 -0.50246,-0.17641 -4.99571,0.25483 -5.35808,0 -0.32278,-0.22669 -0.40989,-0.98245 -0.76374,-1.08196 -1.00088,-0.28124 -2.04022,0 -3.06092,0 -0.51036,0 -1.03831,0.17387 -1.53342,0 -0.55354,-0.19431 -0.97986,-0.87907 -1.53341,-1.0736 -0.74268,-0.26121 -1.57095,0.34047 -2.29717,0 -1.08262,-0.5073 -1.9419,-1.84095 -3.06091,-2.15556 -0.75066,-0.21093 -1.5545,0.26079 -2.29717,0 -0.35007,-0.12316 -0.50856,-0.71498 -0.76373,-1.07365 -0.76553,-0.35879 -1.50122,-0.88713 -2.29716,-1.07361 -0.75513,-0.17684 -1.54651,0.21094 -2.29718,0 -0.0361,-0.009 -2.95508,-2.09603 -3.0609,-2.15556 -1.49844,-0.84256 -3.0959,-1.3046 -4.59434,-2.14725 -1.58383,-0.89054 -3.01049,-2.33858 -4.5943,-3.22917 -0.74923,-0.42142 -1.54204,-0.66061 -2.29125,-1.08191 -1.7499,-0.9839 -2.03331,-1.70499 -3.83057,-3.22086 -0.97857,-0.82534 -2.11141,-1.26574 -3.06093,-2.15556 -0.90079,-0.84418 -1.43108,-2.31608 -2.29717,-3.22918 -0.91293,-0.9625 -2.25398,-1.02122 -3.06092,-2.15556 -0.40347,-0.56715 -0.45315,-1.47985 -0.76964,-2.14723 -1.17245,-2.47223 -0.43194,0.45807 -2.29125,-2.15557 -0.40344,-0.56717 -0.45318,-1.47987 -0.76968,-2.14725 -0.75097,-1.58347 -2.30995,-2.72759 -3.06089,-4.31113 -0.31654,-0.66739 -0.50863,-1.4298 -0.76377,-2.14721 -0.51036,-0.71742 -1.10036,-1.34394 -1.53342,-2.15557 -0.68471,-1.28335 -0.89445,-2.96804 -1.52747,-4.3028 -0.20007,-0.4223 -0.55315,-0.66783 -0.76968,-1.07362 -0.55201,-1.03466 -0.97548,-2.19451 -1.52752,-3.22916 -0.21642,-0.40568 -0.60826,-0.61989 -0.76964,-1.07361 -0.36087,-1.01454 -0.4029,-2.21467 -0.76377,-3.22921 -0.16126,-0.45373 -0.54721,-0.67608 -0.76373,-1.08192 -0.55201,-1.03465 -1.06008,-2.12019 -1.53343,-3.22921 -0.87811,-2.05729 -1.41904,-4.39277 -2.29715,-6.45002 -0.47334,-1.10902 -1.05416,-2.12015 -1.52751,-3.22917 -0.58713,-1.37556 -1.02306,-2.86799 -1.53341,-4.30281 -0.76553,-2.15225 -1.62288,-4.24661 -2.29716,-6.45834 -0.31787,-1.04258 -0.50856,-2.15305 -0.76374,-3.22917 -0.25524,-1.07612 -0.60547,-2.11691 -0.76374,-3.22921 -0.10005,-0.70348 0.16127,-1.47497 0,-2.15556 -0.11431,-0.48126 -0.6083,-0.61988 -0.76968,-1.07361 -0.36088,-1.01458 -0.50856,-2.15305 -0.76374,-3.22917 -0.25524,-1.07607 -0.50859,-2.15304 -0.76376,-3.22916 -0.25524,-1.07613 -0.61142,-2.11696 -0.76966,-3.22921 -0.10003,-0.70348 0.12368,-1.45124 0,-2.14721 -0.13852,-0.77814 -0.62538,-1.37744 -0.76377,-2.15557 -0.24765,-1.39196 0.32277,-2.94162 0,-4.30282 -0.11397,-0.48125 -0.60235,-0.61987 -0.76373,-1.0736 -0.2325,-0.65341 0.2325,-5.80493 0,-6.45838 -0.16128,-0.45374 -0.65555,-0.59239 -0.76968,-1.0736 -0.13732,-0.57855 0,-3.40004 0,-4.31113 l 0,-8.60558 0,-1.07361 c 0,-0.35879 -0.18036,-0.8283 0,-1.08195 0.18036,-0.25355 0.58925,0.25353 0.76968,0 0.20946,-0.29446 -0.20764,-3.719 0,-4.30278 0.16126,-0.45373 0.60235,-0.61992 0.76373,-1.07364 0.22827,-0.64166 -0.22826,-1.51388 0,-2.15557 0.16127,-0.4537 0.60239,-0.61988 0.76377,-1.07361 0.22826,-0.64169 -0.36087,-1.64827 0,-2.15556 0.18037,-0.25354 0.58921,0.25354 0.76966,0 0.18035,-0.25354 -0.18037,-0.81994 0,-1.0736 0.18035,-0.25355 0.58334,0.25353 0.76376,0 0.18036,-0.25355 -0.18035,-0.8199 0,-1.07365 0.18036,-0.25354 0.58331,0.25358 0.76374,0 0.18037,-0.25354 -0.11397,-0.7611 0,-1.08192 0.16126,-0.45373 0.60824,-0.61987 0.76968,-1.07361 0.11395,-0.32086 -0.18036,-0.82002 0,-1.07364 0.18037,-0.25354 0.58329,0.25354 0.76374,0 0.18036,-0.25354 -0.18037,-0.81994 0,-1.0736 0.18036,-0.25355 0.58329,0.25353 0.76374,0 0.18036,-0.25355 -0.18036,-0.8283 0,-1.08197 0.18036,-0.25353 0.58331,0.25355 0.76374,0 0.18035,-0.25353 -0.18037,-0.81997 0,-1.0736 0.18035,-0.25354 0.58926,0.25354 0.76968,0 0.18036,-0.25354 -0.18037,-0.81998 0,-1.07361 0.18036,-0.25353 0.58331,0.25355 0.76374,0 0.18035,-0.25353 -0.18037,-0.82832 0,-1.08195 0.18035,-0.25354 0.58333,0.25353 0.76375,0 0.18037,-0.25354 0,-0.71491 0,-1.07361 0.25525,0 0.5892,0.25354 0.76966,0 0.18036,-0.25353 -0.18037,-0.81998 0,-1.07365 0.36085,-0.50729 1.07105,0.32087 1.52751,0 3.18593,-2.23924 -0.81421,0.0707 0.76968,-2.15551 0.0243,-0.0342 2.10558,-5e-5 2.29122,0 l 3.83059,0 c 0.25524,0 0.58332,-0.25358 0.76375,0 0.18036,0.25353 -0.18037,0.81998 0,1.0736 0.0243,0.0341 2.11148,0 2.29715,0 2.04137,0 -0.257,-0.35299 0.76377,1.08191 0.18035,0.25355 0.51447,0 0.76965,0 l 0.76377,0 3.83057,0 c 0.25524,0 0.58331,0.25355 0.76373,0 0.18037,-0.25353 -0.18035,-0.82824 0,-1.08191 0.18037,-0.25354 0.58332,0.25354 0.76374,0 0.18037,-0.25354 -0.18036,-0.82002 0,-1.0736 0.36088,-0.50731 1.53342,0.71732 1.53342,0 0,-1.47901 -1.64506,-3.48241 -0.76964,-4.30282 0.11867,-0.11124 0.23941,-0.17433 0.36115,-0.19141 z m -0.36115,0.19141 c 0.49852,0.17522 1.00076,0.34038 1.49789,0.52433 -0.20701,-0.23133 -0.41398,-0.39543 -0.61576,-0.52433 l -0.88213,0 z m 1.49789,0.52433 c 0.51238,0.57395 1.04132,1.33457 1.56892,1.63123 0.23707,0.13338 0.50858,0 0.76375,0 0.25525,0 0.5833,0.25354 0.76375,0 0,-1.3355 -0.0438,-1.22832 0,-1.00704 -0.58043,0.0118 -1.17784,0.0235 -1.5275,-0.0749 -0.52778,-0.14838 -1.04823,-0.35663 -1.56892,-0.54928 z m 3.79505,0.62419 c -0.251,0.0132 -0.40659,-0.006 -0.6572,0 0.0768,0.24685 0.2537,0.50345 0.6572,0 z m 2.27939,-1.29835 c 0.0518,0.0169 0.083,0.0601 0.083,0.14983 0,0.35879 -0.50859,0 -0.76377,0 0.19142,0 0.52538,-0.20027 0.68086,-0.14983 z m 87.35735,386.47777 c 0.25523,0 0,0.71488 0,1.0736 0,-0.3588 -0.25525,-1.0736 0,-1.0736 z m -0.21905,1.78104 c 0.11961,0.056 0.18715,0.23168 0.21905,0.36617 l 0,3.22921 0,9.68754 c 0,1.11728 0.16187,3.39173 0,4.30277 -0.19583,1.10045 -0.54798,2.13852 -0.76966,3.22917 -0.28888,1.42208 -0.47473,2.88077 -0.76376,4.30282 -0.2216,1.09069 -0.64961,2.10626 -0.76375,3.22916 -0.14428,1.42038 0.1443,2.88244 0,4.30282 -0.11398,1.12295 -0.57394,2.12871 -0.76968,3.22917 -0.60671,3.41159 -0.74163,6.37348 -1.52747,9.68754 -0.8691,3.66508 -2.12173,7.13041 -3.06093,10.76114 -1.49429,5.77652 -1.33771,6.48732 -3.06684,11.83476 -1.41664,4.38114 -3.23979,8.49331 -4.58839,12.91672 -0.8588,2.81695 -1.38352,5.82291 -2.29716,8.60558 -0.6235,1.89909 -1.59173,3.53488 -2.29715,5.37643 -2.40052,3.97211 -2.984,9.46285 -4.59434,13.99032 -0.66543,1.87078 -1.54743,3.57812 -2.29716,5.38477 -1.03659,2.49804 -2.08557,4.98563 -3.06092,7.53194 -0.81155,2.11861 -1.43466,4.3799 -2.29716,6.45838 -0.92719,2.23427 -2.07299,4.27609 -3.06093,6.45834 -7.5676,16.71692 3.87728,-7.63873 -5.35804,11.83479 l -3.06093,6.45834 c -1.02067,2.15223 -1.96277,4.38075 -3.06684,6.45003 -1.19579,2.24125 -2.54879,4.30614 -3.82466,6.45837 -1.27588,2.15224 -2.47879,4.39977 -3.83057,6.45839 -4.43505,6.75401 -5.84897,8.12582 -10.71614,13.99032 l -5.35807,6.45832 c -1.78623,2.15225 -3.5082,4.41519 -5.35809,6.45839 -4.60264,5.08364 -9.68066,9.42178 -14.54673,13.98201 -1.53106,1.43482 -3.10617,2.78976 -4.59431,4.31112 -1.3214,1.35092 -2.46518,3.02872 -3.82466,4.30277 -4.07966,3.82327 -5.82002,4.40407 -9.95243,7.53199 -1.81135,1.37107 -3.51795,3.00951 -5.35804,4.30282 -1.73815,1.22172 -3.64337,1.94361 -5.35808,3.22916 -2.12411,1.59245 -4.00368,3.79223 -6.12777,5.38474 -5.52883,4.14506 -5.59334,2.58841 -11.47989,6.45002 -1.86426,1.22296 -3.49377,3.08817 -5.35805,4.31113 -1.97566,1.29603 -4.08045,2.14477 -6.12185,3.22085 -8.39078,4.4232 -4.06124,2.26091 -13.01924,6.45839 -9.35076,4.38155 -18.76019,8.48213 -28.32378,11.84306 -2.04141,0.71741 -4.06769,1.50555 -6.12182,2.14726 -4.43544,2.40808 -9.211,1.94543 -13.77705,3.22916 -1.82164,0.51215 -3.54236,1.6434 -5.364,2.15556 -2.44186,0.68652 -11.83686,1.82639 -13.77705,2.14726 -1.792,0.29615 -3.55724,0.91538 -5.35808,1.0736 -2.2921,0.20155 -4.60077,-0.2301 -6.8915,0 -1.29783,0.13039 -2.54879,0.72325 -3.82467,1.08196 -2.04137,0.35879 -4.07401,0.9038 -6.12773,1.0736 -2.2926,0.18963 -4.58904,0 -6.88558,0 l -9.95239,0 -13.01333,0 -3.06682,0 c -1.02071,0 -2.04646,0.15852 -3.0609,0 -1.29319,-0.20197 -2.52802,-0.92169 -3.82466,-1.0736 -1.78004,-0.20837 -3.57804,0.20836 -5.35808,0 -1.29665,-0.1517 -2.54715,-0.78125 -3.83059,-1.08196 -1.7798,-0.41675 -3.56954,-0.73842 -5.35807,-1.0736 -0.98377,-0.18451 -10.16337,-1.72016 -11.4799,-2.14726 -1.57252,-0.51011 -3.05183,-1.48839 -4.5943,-2.15556 -1.77557,-0.76796 -3.58253,-1.38762 -5.35809,-2.15556 -3.08499,-1.33434 -6.15528,-2.75218 -9.18866,-4.30278 -1.29142,-0.6601 -2.50843,-1.5922 -3.82466,-2.14724 -8.38817,-2.35831 0.35282,0.58965 -6.8915,-3.22918 -0.9851,-0.51927 -2.09384,-0.49937 -3.06089,-1.08195 -0.84564,-0.50948 -1.53166,-1.42981 -2.29718,-2.14726 -1.02068,-0.71742 -2.012,-1.52359 -3.0609,-2.15551 -0.74167,-0.44684 -1.60523,-0.49009 -2.29715,-1.07365 -0.61891,-0.522 -0.96985,-1.52177 -1.53343,-2.15556 -0.71841,-0.80793 -1.56115,-1.37121 -2.29718,-2.14721 -0.28858,-0.30426 -0.47503,-0.77759 -0.76375,-1.08197 -0.73601,-0.77595 -1.57869,-1.33933 -2.29714,-2.14724 -1.12716,-1.26763 -2.04023,-2.86801 -3.06093,-4.30278 -0.51035,-0.71742 -1.08257,-1.36332 -1.53341,-2.15556 -0.57478,-1.0099 -0.95275,-2.21923 -1.52748,-3.22918 -3.03022,-5.32451 0.14825,1.29037 -3.83061,-4.3028 -0.65055,-0.9145 -0.9527,-2.21928 -1.52747,-3.22918 -1.56837,-2.75592 -3.79562,-4.77611 -5.36399,-7.53198 -0.57477,-1.00991 -0.93853,-2.23563 -1.52751,-3.22917 -0.69308,-1.16914 -1.53162,-2.15305 -2.29716,-3.22917 -0.51032,-0.71741 -0.96984,-1.51348 -1.53341,-2.14725 -0.71846,-0.80797 -1.72239,-1.14566 -2.29716,-2.15556 -0.50407,-0.88578 -0.34863,-2.25651 -0.76377,-3.22917 -0.37133,-0.87001 -1.01712,-1.43815 -1.52747,-2.15556 -1.0207,-1.43482 -2.16512,-2.71835 -3.06684,-4.30282 -0.57477,-1.00994 -0.97548,-2.19451 -1.52751,-3.22917 -0.21644,-0.40566 -0.60826,-0.61988 -0.76964,-1.0736 -0.36088,-1.01454 -0.27955,-2.32175 -0.76378,-3.22921 -0.34231,-0.64169 -1.12401,-0.50643 -1.52747,-1.07361 -1.00106,-1.40721 -1.74431,-6.67097 -2.29719,-8.61389 -0.42381,-1.48945 -1.10961,-2.81337 -1.53338,-4.30282 -0.2998,-1.0532 -0.46411,-2.17598 -0.76377,-3.22917 -0.71397,-2.50911 -1.17072,-2.31727 -1.53342,-5.37642 -0.1258,-1.06147 0.18582,-2.18517 0,-3.22917 -0.0875,-0.49212 -0.64961,-0.59242 -0.76374,-1.07365 -0.15156,-0.63995 0,-5.18723 0,-6.45833 l 0,-12.91671 0,-20.44039 0,-6.45834 0,-2.15556 c 0,-0.35879 -0.0806,-0.7333 0,-1.07361 0.18037,-0.76091 0.65185,-1.36908 0.76374,-2.15556 0.25008,-1.75871 0,-3.58289 0,-5.37643 0,-0.71736 -0.16127,-1.47495 0,-2.15555 0.11397,-0.48126 0.67625,-0.58148 0.76377,-1.07361 0.19613,-1.10335 -0.26827,-5.32716 0,-6.45838 0.11398,-0.48125 0.68213,-0.58143 0.76965,-1.0736 0.18581,-1.04396 0,-2.15306 0,-3.22917 0,-0.71741 -0.16127,-1.47496 0,-2.15556 0.11398,-0.48126 0.50859,-0.71494 0.76377,-1.07366 0.25523,-0.71736 0.62532,-1.37742 0.76373,-2.15555 0.24766,-1.39201 -0.32277,-2.94163 0,-4.30277 0.11398,-0.48126 0.68215,-0.58153 0.76965,-1.07362 0.10821,-0.60818 -0.19795,-4.54987 0,-5.38477 0.18037,-0.76091 0.6254,-1.36907 0.76377,-2.14721 0.12368,-0.69597 0,-1.43814 0,-2.15556 0,-0.35879 -0.11398,-0.75282 0,-1.07365 0.16127,-0.45372 0.50857,-0.7149 0.76374,-1.0736 0,-0.71741 -0.16127,-1.47497 0,-2.15556 0.11397,-0.48126 0.65555,-0.59235 0.76968,-1.07361 0.11671,-0.49217 -0.17036,-3.8323 0,-4.31113 0.16126,-0.45372 0.64961,-0.59233 0.76373,-1.0736 0.15158,-0.63989 0,-5.18726 0,-6.45838 0,-0.35879 -0.11397,-0.75277 0,-1.0736 0.16127,-0.45373 0.60235,-0.61987 0.76374,-1.07362 0.11398,-0.32086 0,-0.72323 0,-1.08195 l 0,-1.07361 0,-6.45837 0,-1.07361 c 0,-0.35879 -0.18036,-0.82001 0,-1.07365 0.18037,-0.25353 0.58335,0.25356 0.76378,0 0.23703,-0.33317 -0.23705,-5.05154 0,-5.38471 0.18036,-0.25356 0.58922,0.25353 0.76964,0 0.18036,-0.25356 0,-0.71491 0,-1.07362 l 0,-1.0736 c 0,-0.56274 -0.1006,-4.01987 0,-4.30282 0.16127,-0.45373 0.60239,-0.62818 0.76377,-1.0819 0.15187,-0.42668 -0.15642,-3.00922 0,-3.22922 0.18037,-0.25355 0.58328,0.25354 0.76374,0 0.15642,-0.21988 -0.15187,-2.8025 0,-3.22917 0.16126,-0.45373 0.60827,-0.61987 0.76965,-1.0736 0.22826,-0.64165 -0.36087,-1.64 0,-2.14725 0.18039,-0.25355 0.58334,0.25353 0.76376,0 0.18037,-0.25355 -0.11397,-0.76114 0,-1.08197 0.16127,-0.45373 0.60236,-0.61987 0.76374,-1.0736 0.11399,-0.32087 -0.18035,-0.81994 0,-1.07361 0.18037,-0.25354 0.58926,0.25355 0.76969,0 0.36087,-0.50729 -0.36088,-1.64827 0,-2.15555 0.18036,-0.25355 0.50856,0 0.76374,0 l 0.76373,0 c 0.25523,0 0.58335,-0.25355 0.76377,0 0.18036,0.25353 -0.18036,0.81997 0,1.0736 0.18036,0.25354 0.58923,-0.25354 0.76966,0 0.18035,0.25354 -0.11399,0.76112 0,1.08195 0.16126,0.45374 0.60237,0.61988 0.76375,1.07361 0,2.8696 -0.25701,-0.36131 0.76375,1.0736 0.18036,0.25355 -0.18037,0.82829 0,1.08197 0.18036,0.25353 0.58922,-0.25355 0.76968,0 0.18036,0.25353 -0.18037,0.81996 0,1.0736 0.18036,0.25354 0.58332,-0.25355 0.76373,0 0.38277,0.53806 -0.38273,2.69114 0,3.22921 0.18036,0.25354 0.50857,0 0.76375,0 0,1.43482 -0.56616,3.10891 0,4.30277 0.32465,0.3423 0.66337,0.66009 1.00057,0.98207 0.68307,0.37563 1.48412,0.56602 2.06035,1.17349 0.204,0.2152 -0.18036,0.81994 0,1.07362 0.18035,0.25353 0.58923,-0.25356 0.76965,0 0.18036,0.25353 -0.18037,0.82001 0,1.07364 0.18036,0.25354 0.58334,-0.25354 0.76377,0 0.18036,0.25354 -0.18037,0.81998 0,1.0736 0.18036,0.25355 0.58331,-0.25354 0.76373,0 0.46722,0.65678 -0.29779,1.31568 -0.0473,1.97246 0.0457,0.0605 0.0905,0.12229 0.13617,0.1831 0.20006,0.0869 0.52122,-0.22427 0.68085,0 0.17048,0.2397 -0.11762,0.74478 0,1.01535 0.0426,0.0621 0.0822,0.12857 0.12431,0.19142 0.85813,0.96243 0.63943,-1.78279 0.63943,0.9488 0.35641,0.62635 0.30728,1.66599 0.76374,2.14724 0.64554,0.6806 1.66706,0.37354 2.29715,1.08192 0.71842,0.80793 0.88287,2.30637 1.53342,3.22086 0.40347,0.56717 1.03822,0.6693 1.52751,1.08195 0.78892,0.66543 1.57871,1.33926 2.29715,2.14721 1.12717,1.26759 1.85986,3.17727 3.06092,4.30282 0.9495,0.88982 2.07602,1.35967 3.06684,2.15557 0.79881,0.64164 1.49834,1.51391 2.29717,2.15556 0.99082,0.79591 2.0701,1.35131 3.06091,2.14721 0.79882,0.64165 1.47425,1.57719 2.29716,2.15556 1.22907,0.86392 2.54881,1.42985 3.82466,2.14725 l 3.83058,2.15556 c 2.93255,1.64892 7.17331,4.08252 9.95239,5.38474 3.30286,1.54763 9.00865,3.50032 12.24364,4.30281 2.02597,0.50257 4.10572,0.54066 6.12775,1.07361 2.06821,0.54509 4.04089,1.71674 6.12182,2.15556 3.03871,0.64071 6.12858,0.68256 9.18865,1.0736 2.55394,0.32642 5.09434,0.8842 7.65524,1.07365 2.2934,0.1696 4.58901,0 6.88559,0 l 10.72204,0 32.14845,0 21.43824,0 6.12181,0 c 2.29655,0 4.59893,0.18963 6.8915,0 2.05375,-0.17002 4.07226,-0.82308 6.12183,-1.07365 10.95287,-1.33882 21.97344,-1.74025 32.91809,-3.22916 4.34757,-0.59145 8.66865,-1.52376 13.01332,-2.15556 6.36576,-0.92569 12.78101,-1.0754 19.13514,-2.14726 3.0822,-0.51994 6.11278,-1.56593 9.18865,-2.15556 2.54094,-0.48705 5.11915,-0.53882 7.65523,-1.0736 2.5735,-0.54262 5.10352,-1.43819 7.65525,-2.15557 5.10348,-1.43482 10.22987,-2.71564 15.3105,-4.30277 2.05408,-0.64165 4.04962,-1.63322 6.12182,-2.14726 2.27554,-0.56452 4.64976,-0.29431 6.89147,-1.08195 1.88532,-0.66257 3.51446,-2.3653 5.35808,-3.22917 10.58423,-4.9595 1.75745,0.58132 11.48581,-4.30278 1.83012,-0.91879 3.52795,-2.31041 5.35807,-3.22921 3.49892,-1.75662 7.19144,-2.65113 10.71617,-4.30277 1.30364,-0.61084 2.53917,-1.48711 3.83057,-2.14725 1.51671,-0.77528 3.08997,-1.313 4.5884,-2.15556 6.16899,-3.46873 -0.23038,-0.83408 6.8915,-5.38473 2.89363,-1.84892 4.24695,-2.61189 4.99694,-2.97115 0.59425,-0.56465 1.40252,-1.30196 2.65829,-2.40527 0.96769,-0.85019 2.04022,-1.43815 3.06093,-2.15556 1.53103,-1.07607 3.09796,-2.06058 4.59432,-3.22917 0.80426,-0.6281 1.53162,-1.42984 2.29715,-2.14725 1.02071,-1.07608 1.95316,-2.33936 3.06092,-3.22917 0.70063,-0.56277 1.66704,-0.3648 2.29716,-1.07361 0.71843,-0.80791 0.81499,-2.42125 1.53342,-3.22916 0.63012,-0.70864 1.6516,-0.40129 2.29715,-1.08195 0.45645,-0.48127 0.42142,-1.50558 0.76377,-2.14726 1.28606,-2.41048 3.30822,-4.04783 4.59431,-6.45834 0.34233,-0.64165 0.44727,-1.48822 0.76377,-2.15556 0.20003,-0.42229 0.56358,-0.65154 0.76374,-1.0736 0.3165,-0.66739 0.42729,-1.50558 0.76966,-2.14726 0.64957,-1.21746 1.52574,-2.15305 2.29123,-3.22916 0.25524,-0.35881 0.65559,-0.60071 0.76967,-1.08196 0.16129,-0.6806 -0.16126,-1.46666 0,-2.14726 0.79649,-3.35887 0.50682,0.35295 1.52752,-1.08191 0.18037,-0.25355 -0.18036,-0.82003 0,-1.07364 0.25517,-0.35872 0.43099,-0.42221 0.5506,-0.36617 z m -34.59362,41.51326 c -3.46094,3.28827 2.44974,-1.17362 0,0 z M 192.559,663.62714 c -0.1936,-0.34018 -0.42742,-0.63177 -0.63943,-0.9488 -0.0434,-0.0487 -0.0752,-0.0642 -0.12431,-0.13315 l 0.76374,1.08195 z m -0.76374,-1.08195 c -0.01,-0.0138 0.007,-0.0426 0,-0.0583 -0.22934,-0.33467 -0.44047,-0.69456 -0.68085,-1.01535 -0.0261,-0.0113 -0.068,0.0293 -0.0888,0 l 0.76968,1.07361 z m -0.76968,-1.07362 c -0.0431,-0.0605 -0.0243,-0.12251 -0.0473,-0.1831 -0.49533,-0.65494 -1.00035,-1.298 -1.48016,-1.97246 l 1.5275,2.15556 z m -2.29715,-4.3028 c -0.61524,-0.86481 -1.33742,-1.55684 -2.06035,-2.24711 -0.3992,-0.21949 -0.76707,-0.48973 -1.00057,-0.98207 l 3.06092,4.30282 c -0.11428,-0.32083 0.18035,-0.82011 0,-1.07364 z m 0,1.07364 c 0.15447,0.43464 0.48262,0.6955 0.73415,1.03201 l -0.73415,-1.03201 z"
       id="rect3483"
       inkscape:connector-curvature="0" />
  </g>
</svg>
